# xmcd
#
# Track frame offsets:
# 150
# 2242
# 21397
# 41090
# 59361
# 74215
# 94457
# 108296
# 123332
# 137269
# 155738
#
# Disc length: 2314 seconds
#
#
# Revision: 0
# Processed by: cddbd v1.5PL3 Copyright (c) Steve Scherf et al.
# Submitted via: FreeRIP 2.53 
#
DISCID=9e09080b
DTITLE=Kellie Coffey - When You Lie Next To Me
DYEAR=1900
DGENRE=Country
TTITLE0=Bluier Skies
TTITLE1=Why Wyoming
TTITLE2=At The End Of The Day
TTITLE3=When You Lie Next To Me
TTITLE4=What It's Like To Be Me
TTITLE5=Fingerprints
TTITLE6=The Simple Truth
TTITLE7=Whatever it Takes
TTITLE8=I Just Know
TTITLE9=Love's Funny That Way
TTITLE10=Outside Looking In
EXTD=
EXTT0=
EXTT1=
EXTT2=
EXTT3=
EXTT4=
EXTT5=
EXTT6=
EXTT7=
EXTT8=
EXTT9=
EXTT10=
PLAYORDER=
